<svg width="200" height="32" viewBox="0 0 200 32" fill="none" xmlns="http://www.w3.org/2000/svg">
<path d="M27.9235 6.61759C23.5071 3.4048 17.6372 2.6735 12.7611 3.64246C7.30565 -2.15105 1.19235 0.513736 0 1.2798C0 1.2798 4.19532 5.20493 3.5139 8.64273C-1.45298 14.2175 0.908183 20.4244 3.5139 23.3553C4.19532 26.7931 0 30.7182 0 30.7182C1.18087 31.4868 7.27752 34.1434 12.7611 28.3796C17.6263 29.3422 23.4962 28.6173 27.9235 25.3988C34.7699 20.5862 34.7923 11.4548 27.9235 6.61696V6.61759ZM16.8881 25.3678C15.1807 25.3732 13.4801 25.1316 11.8299 24.6492L10.695 25.8558C10.0646 26.5289 9.35868 27.1107 8.59444 27.587C7.66723 28.101 6.65995 28.4169 5.62591 28.518C5.68332 28.4055 5.73384 28.293 5.78493 28.1868C6.92045 25.8692 7.22662 23.79 6.70345 21.949C4.83599 20.3302 3.71827 18.2615 3.71827 15.9993C3.71827 10.8164 9.61629 6.61759 16.8881 6.61759C24.1598 6.61759 30.0579 10.8164 30.0579 15.9993C30.0579 21.1823 24.1598 25.3678 16.8881 25.3678ZM10.5698 18.2305C10.0485 18.2386 9.54542 18.0189 9.17095 17.6194C8.79648 17.2199 8.58112 16.6732 8.57205 16.0992C8.53187 13.2303 12.466 13.1677 12.5056 16.0303V16.0625C12.508 16.345 12.4599 16.6252 12.3639 16.8871C12.2679 17.149 12.1259 17.3875 11.9461 17.589C11.7663 17.7904 11.5522 17.9509 11.3161 18.0612C11.0799 18.1715 10.8263 18.2295 10.5698 18.2318V18.2305ZM14.8048 16.0992C14.7594 13.2303 18.6935 13.1614 18.7389 16.024V16.0625C18.7613 18.9119 14.8501 18.9429 14.8048 16.0992ZM23.0358 18.2305C22.5144 18.2386 22.0113 18.0189 21.6367 17.6194C21.2622 17.2199 21.0467 16.6733 21.0375 16.0992C20.9979 13.2303 24.932 13.1677 24.9716 16.0303V16.0625C24.9748 16.3452 24.9273 16.6258 24.8316 16.8881C24.7359 17.1505 24.5939 17.3893 24.414 17.591C24.234 17.7927 24.0196 17.9531 23.7831 18.0631C23.5465 18.1731 23.2926 18.2304 23.0358 18.2318V18.2305Z" fill="#FC732F"/>
<path d="M61.2027 20.636V24.5H48.6507V7.316H53.1387V20.636H61.2027ZM71.2632 6.884C73.9352 6.884 76.0632 7.828 77.6472 9.716C79.0072 11.364 79.6872 13.428 79.6872 15.908C79.6872 18.772 78.8072 21.044 77.0472 22.724C75.5112 24.196 73.5832 24.932 71.2632 24.932C68.5432 24.932 66.3832 23.988 64.7832 22.1C63.4072 20.468 62.7192 18.404 62.7192 15.908C62.7192 13.044 63.5672 10.804 65.2632 9.188C66.8952 7.652 68.8952 6.884 71.2632 6.884ZM71.2392 10.58C69.9432 10.58 68.9352 11.124 68.2152 12.212C67.5912 13.14 67.2792 14.364 67.2792 15.884C67.2792 17.66 67.6792 19.028 68.4792 19.988C69.1832 20.82 70.1112 21.236 71.2632 21.236C72.4792 21.236 73.4312 20.764 74.1192 19.82C74.8072 18.86 75.1512 17.524 75.1512 15.812C75.1512 14.068 74.7512 12.732 73.9512 11.804C73.2632 10.988 72.3592 10.58 71.2392 10.58ZM97.9114 15.164V24.5H95.0314C94.8714 23.764 94.7914 23.236 94.7914 22.916C94.7914 22.884 94.7914 22.844 94.7914 22.796C94.7914 22.732 94.7914 22.676 94.7914 22.628C93.5754 24.164 91.8554 24.932 89.6314 24.932C86.9914 24.932 84.9034 23.996 83.3674 22.124C82.0394 20.492 81.3754 18.436 81.3754 15.956C81.3754 13.076 82.2874 10.788 84.1114 9.092C85.6954 7.62 87.6874 6.884 90.0874 6.884C92.2634 6.884 94.0714 7.54 95.5114 8.852C96.7594 9.988 97.4714 11.42 97.6474 13.148H93.3034C92.9194 11.436 91.8234 10.58 90.0154 10.58C88.7034 10.58 87.6954 11.052 86.9914 11.996C86.2874 12.924 85.9354 14.26 85.9354 16.004C85.9354 19.492 87.3594 21.236 90.2074 21.236C92.3034 21.236 93.5034 20.276 93.8074 18.356H90.6874V15.164H97.9114ZM108.623 6.884C111.295 6.884 113.423 7.828 115.007 9.716C116.367 11.364 117.047 13.428 117.047 15.908C117.047 18.772 116.167 21.044 114.407 22.724C112.871 24.196 110.943 24.932 108.623 24.932C105.903 24.932 103.743 23.988 102.143 22.1C100.767 20.468 100.079 18.404 100.079 15.908C100.079 13.044 100.927 10.804 102.623 9.188C104.255 7.652 106.255 6.884 108.623 6.884ZM108.599 10.58C107.303 10.58 106.295 11.124 105.575 12.212C104.951 13.14 104.639 14.364 104.639 15.884C104.639 17.66 105.039 19.028 105.839 19.988C106.543 20.82 107.471 21.236 108.623 21.236C109.839 21.236 110.791 20.764 111.479 19.82C112.167 18.86 112.511 17.524 112.511 15.812C112.511 14.068 112.111 12.732 111.311 11.804C110.623 10.988 109.719 10.58 108.599 10.58Z" fill="white"/>
<path d="M123.967 7.316V24.5H119.479V7.316H123.967ZM127.119 7.316H134.199C136.471 7.316 138.111 7.66 139.119 8.348C140.687 9.404 141.471 11.004 141.471 13.148C141.471 14.892 140.879 16.3 139.695 17.372C138.671 18.3 137.159 18.764 135.159 18.764H131.607V24.5H127.119V7.316ZM131.607 11.012V15.236H134.559C136.255 15.236 137.103 14.532 137.103 13.124C137.103 11.748 136.199 11.052 134.391 11.036L131.607 11.012ZM156.842 12.476H152.57C152.506 11.068 151.586 10.364 149.81 10.364C148.258 10.364 147.482 10.868 147.482 11.876C147.482 12.34 147.69 12.676 148.106 12.884C148.458 13.06 149.586 13.388 151.49 13.868C153.298 14.332 154.61 14.82 155.426 15.332C156.834 16.196 157.538 17.492 157.538 19.22C157.538 21.108 156.794 22.564 155.306 23.588C154.01 24.484 152.306 24.932 150.194 24.932C147.634 24.932 145.682 24.316 144.338 23.084C143.154 22.012 142.546 20.556 142.514 18.716H147.026C147.122 20.54 148.234 21.452 150.362 21.452C152.106 21.452 152.978 20.868 152.978 19.7C152.978 19.156 152.746 18.756 152.282 18.5C151.834 18.228 150.706 17.836 148.898 17.324C146.706 16.7 145.234 16.068 144.482 15.428C143.602 14.676 143.162 13.588 143.162 12.164C143.162 10.468 143.866 9.132 145.274 8.156C146.506 7.308 148.082 6.884 150.002 6.884C152.29 6.884 154.034 7.436 155.234 8.54C156.274 9.5 156.81 10.812 156.842 12.476ZM174.55 7.316V17.54C174.55 19.828 174.078 21.54 173.134 22.676C171.886 24.18 169.87 24.932 167.086 24.932C164.126 24.932 162.022 24.084 160.774 22.388C159.99 21.316 159.598 19.684 159.598 17.492V7.316H164.086V17.828C164.086 19.028 164.326 19.9 164.806 20.444C165.302 20.972 166.094 21.236 167.182 21.236C168.19 21.236 168.926 20.972 169.39 20.444C169.854 19.9 170.086 19.028 170.086 17.828V7.316H174.55ZM196.687 7.316V24.5H192.439V20.636C192.439 18.156 192.511 15.084 192.655 11.42C192.047 13.996 191.431 16.268 190.807 18.236L188.815 24.5H185.383L183.367 18.404C182.775 16.628 182.151 14.3 181.495 11.42C181.639 14.684 181.711 17.564 181.711 20.06V24.5H177.463V7.316H183.895L185.743 13.292C186.287 15.036 186.751 17.028 187.135 19.268C187.663 16.708 188.151 14.684 188.599 13.196L190.351 7.316H196.687Z" fill="#FC732F"/>
</svg>
